HIERARCHY
ROOT Hips
{
	OFFSET 0.000000 0.000000 0.000000
	CHANNELS 6 Xposition Yposition Zposition Xrotation Yrotation Zrotation
	JOINT LeftUpLeg_virtual
	{
		OFFSET 0.000000 0.000000 0.000000
		CHANNELS 3 Xrotation Yrotation Zrotation
		JOINT LeftUpLeg
		{
			OFFSET 15.427100 -6.655098 0.678600
			CHANNELS 3 Xrotation Yrotation Zrotation
			JOINT LeftLeg
			{
				OFFSET 4.081073 -39.591068 13.024000
				CHANNELS 3 Xrotation Yrotation Zrotation
				JOINT LeftFoot
				{
					OFFSET -4.081074 -37.707932 -15.979700
					CHANNELS 3 Xrotation Yrotation Zrotation
					JOINT LeftToeBase
					{
						OFFSET 5.346399 -15.068900 20.645000
						CHANNELS 3 Xrotation Yrotation Zrotation
						JOINT LeftToe_End
						{
							OFFSET 2.754700 0.931300 11.300900
							CHANNELS 3 Xrotation Yrotation Zrotation
							End Site
							{
								OFFSET 0 0 0
							}
						}
					}
				}
			}
		}
	}
	JOINT RightUpLeg_virtual
	{
		OFFSET 0.000000 0.000000 0.000000
		CHANNELS 3 Xrotation Yrotation Zrotation
		JOINT RightUpLeg
		{
			OFFSET -15.569500 -6.655098 0.678600
			CHANNELS 3 Xrotation Yrotation Zrotation
			JOINT RightLeg
			{
				OFFSET -4.081825 -39.591045 13.023800
				CHANNELS 3 Xrotation Yrotation Zrotation
				JOINT RightFoot
				{
					OFFSET 4.081824 -37.707954 -15.979600
					CHANNELS 3 Xrotation Yrotation Zrotation
					JOINT RightToeBase
					{
						OFFSET -5.346400 -15.068900 20.645000
						CHANNELS 3 Xrotation Yrotation Zrotation
						JOINT RightToe_End
						{
							OFFSET -2.754700 0.931300 11.300900
							CHANNELS 3 Xrotation Yrotation Zrotation
							End Site
							{
								OFFSET 0 0 0
							}
						}
					}
				}
			}
		}
	}
	JOINT Spine_virtual
	{
		OFFSET 0.000000 0.000000 0.000000
		CHANNELS 3 Xrotation Yrotation Zrotation
		JOINT Spine
		{
			OFFSET -0.279200 12.230698 -2.892100
			CHANNELS 3 Xrotation Yrotation Zrotation
			JOINT Spine1
			{
				OFFSET -0.232667 10.192268 -1.242267
				CHANNELS 3 Xrotation Yrotation Zrotation
				JOINT Spine1_split
				{
					OFFSET -0.232667 10.192268 -1.242267
					CHANNELS 3 Xrotation Yrotation Zrotation
					JOINT Spine2
					{
						OFFSET -0.232667 10.192268 -1.242267
						CHANNELS 3 Xrotation Yrotation Zrotation
						JOINT Neck_virtual
						{
							OFFSET 0.000000 0.000000 0.000000
							CHANNELS 3 Xrotation Yrotation Zrotation
							JOINT Neck
							{
								OFFSET -0.418800 17.814194 8.416900
								CHANNELS 3 Xrotation Yrotation Zrotation
								JOINT Head
								{
									OFFSET 0.000000 7.031097 3.806800
									CHANNELS 3 Xrotation Yrotation Zrotation
									JOINT HeadTop_End
									{
										OFFSET 0.000000 24.646606 12.978600
										CHANNELS 3 Xrotation Yrotation Zrotation
										End Site
										{
											OFFSET 0 0 0
										}
									}
								}
							}
						}
						JOINT LeftShoulder_virtual
						{
							OFFSET 0.000000 0.000000 0.000000
							CHANNELS 3 Xrotation Yrotation Zrotation
							JOINT LeftShoulder
							{
								OFFSET 8.476499 7.247704 -3.868750
								CHANNELS 3 Xrotation Yrotation Zrotation
								JOINT LeftShoulder_split
								{
									OFFSET 8.476499 7.247704 -3.868750
									CHANNELS 3 Xrotation Yrotation Zrotation
									JOINT LeftArm
									{
										OFFSET 9.308998 -2.777710 0.208600
										CHANNELS 3 Xrotation Yrotation Zrotation
										JOINT LeftForeArm
										{
											OFFSET 29.972298 0.000000 0.000000
											CHANNELS 3 Xrotation Yrotation Zrotation
											JOINT LeftHand
											{
												OFFSET 26.026505 0.000000 0.000000
												CHANNELS 3 Xrotation Yrotation Zrotation
												End Site
												{
													OFFSET 0 0 0
												}
											}
										}
									}
								}
							}
						}
						JOINT RightShoulder_virtual
						{
							OFFSET 0.000000 0.000000 0.000000
							CHANNELS 3 Xrotation Yrotation Zrotation
							JOINT RightShoulder
							{
								OFFSET -7.570500 7.247704 -3.868750
								CHANNELS 3 Xrotation Yrotation Zrotation
								JOINT RightShoulder_split
								{
									OFFSET -7.570500 7.247704 -3.868750
									CHANNELS 3 Xrotation Yrotation Zrotation
									JOINT RightArm
									{
										OFFSET -9.308998 -2.777710 0.208500
										CHANNELS 3 Xrotation Yrotation Zrotation
										JOINT RightForeArm
										{
											OFFSET -29.972300 0.000000 0.000000
											CHANNELS 3 Xrotation Yrotation Zrotation
											JOINT RightHand
											{
												OFFSET -26.026505 0.000000 0.000000
												CHANNELS 3 Xrotation Yrotation Zrotation
												End Site
												{
													OFFSET 0 0 0
												}
											}
										}
									}
								}
							}
						}
					}
				}
			}
		}
	}
}
MOTION
Frames: 4
Frame Time: 0.03333333
9.986353 93.224976 -3.765129 0.000000 0.000000 0.000000 -0.768717 -21.252241 -1.674589 -5.685381 5.468076 -0.142935 13.565002 9.410401 1.996601 -8.476917 19.553401 -1.513557 -2.270966 0.214470 -1.498151 0.000000 0.000000 0.000000 0.036892 -21.194722 -1.750265 -7.404477 -7.516889 -12.369261 12.348381 4.581692 4.757987 -9.693573 -4.587821 6.784979 -6.706790 0.562117 0.764920 0.000000 0.000000 0.000000 -0.287801 -21.598023 -2.495378 3.864068 1.539850 -1.148813 0.515591 -0.038204 0.141685 1.102681 0.241910 0.254361 0.000000 0.000000 0.000000 1.305336 0.394915 -0.300411 1.144959 -1.032047 2.285484 13.320080 10.302216 5.610380 0.000000 0.000000 0.000000 0.851002 0.439634 -0.166974 2.227812 -2.820499 -11.608311 -0.501112 -1.074423 -1.904165 -6.797570 -19.043599 -56.060536 0.392628 -14.096206 0.399098 0.000000 0.000000 0.000000 0.936003 0.451877 -0.125009 2.423480 -2.699215 16.701913 -0.767114 2.841892 -2.985633 7.211129 2.401438 65.637421 1.816793 20.332152 1.465477 0.000000 0.000000 0.000000 
10.562996 93.204681 -3.455074 0.000000 0.000000 0.000000 -0.698812 -22.188204 -1.849945 -5.707218 5.638711 -0.325759 13.454121 9.403827 1.998299 -8.506369 20.327446 -1.266967 -2.303248 0.228565 -1.446250 0.000000 0.000000 0.000000 0.069946 -22.069145 -1.928157 -7.606990 -7.525959 -12.257348 12.352330 4.756015 4.724628 -10.089104 -4.485960 6.652217 -6.466223 0.539189 0.740787 0.000000 0.000000 0.000000 -0.254651 -22.454051 -2.697433 3.616564 1.056217 -1.258093 0.466980 -0.126930 0.120646 1.161741 0.259352 0.247043 0.000000 0.000000 0.000000 1.276664 0.299542 -0.323351 1.135276 -1.129431 2.386134 13.605070 11.227237 5.929658 0.000000 0.000000 0.000000 0.803561 0.358084 -0.185395 2.177078 -3.053910 -11.496894 -0.591957 -1.004082 -1.918178 -7.106425 -20.689133 -56.333720 0.394525 -14.633211 0.410127 0.000000 0.000000 0.000000 0.901189 0.365749 -0.172045 2.486466 -3.260322 17.053567 -0.808683 2.762928 -3.052523 6.816870 3.048000 66.161830 1.834539 20.838511 1.473695 0.000000 0.000000 0.000000 
11.096448 93.192917 -3.156960 0.000000 0.000000 0.000000 -0.611203 -23.118319 -2.022865 -5.748750 5.848896 -0.456815 13.330934 9.398521 2.024644 -8.492375 21.050991 -1.028705 -2.344237 0.242751 -1.400569 0.000000 0.000000 0.000000 0.114569 -22.925315 -2.107580 -7.813699 -7.565316 -12.112027 12.284261 4.827565 4.672079 -10.363138 -4.380909 6.487942 -6.182088 0.519411 0.704288 0.000000 0.000000 0.000000 -0.202246 -23.295115 -2.892577 3.392280 0.546197 -1.400182 0.416332 -0.209226 0.083127 1.225875 0.287630 0.241464 0.000000 0.000000 0.000000 1.244901 0.206505 -0.356985 1.139550 -1.223845 2.486275 13.884730 12.081936 6.333755 0.000000 0.000000 0.000000 0.759534 0.283414 -0.213586 2.113714 -3.340987 -11.317842 -0.673306 -0.934230 -1.921745 -7.270864 -22.432421 -56.617238 0.419698 -15.529419 0.434515 0.000000 0.000000 0.000000 0.879930 0.283624 -0.236191 2.550685 -3.852649 17.444371 -0.862394 2.651904 -3.081290 6.295881 3.794515 66.616577 1.857253 21.358768 1.480004 0.000000 0.000000 0.000000 
11.575087 93.196304 -2.884212 0.000000 0.000000 0.000000 -0.489681 -23.971768 -2.183161 -5.823730 6.072314 -0.543617 13.186572 9.392516 2.074146 -8.404885 21.698428 -0.792969 -2.418575 0.256694 -1.357518 0.000000 0.000000 0.000000 0.210026 -23.716515 -2.272818 -8.003283 -7.600172 -11.951504 12.090684 4.803286 4.591161 -10.429220 -4.274022 6.389227 -5.989552 0.501342 0.664418 0.000000 0.000000 0.000000 -0.102327 -24.073224 -3.064801 3.179078 0.012545 -1.594567 0.359721 -0.288051 0.025104 1.251219 0.314703 0.258360 0.000000 0.000000 0.000000 1.201872 0.113758 -0.406676 1.153154 -1.317038 2.610887 14.173500 12.855118 6.818683 0.000000 0.000000 0.000000 0.714843 0.214504 -0.255977 2.038616 -3.669157 -11.057831 -0.739547 -0.857577 -1.907226 -7.269613 -24.240430 -56.939319 0.479334 -16.845478 0.472235 0.000000 0.000000 0.000000 0.866376 0.203833 -0.321824 2.618343 -4.477925 17.856281 -0.921455 2.507266 -3.076853 5.718330 4.606248 66.986179 1.881630 21.863828 1.493430 0.000000 0.000000 0.000000 
